<?xml version="1.0" standalone="no"?>
<!DOCTYPE svg PUBLIC "-//W3C//DTD SVG 20010904//EN"
 "http://www.w3.org/TR/2001/REC-SVG-20010904/DTD/svg10.dtd">
<svg version="1.0" xmlns="http://www.w3.org/2000/svg"
 width="586.000000pt" height="586.000000pt" viewBox="0 0 586.000000 586.000000"
 preserveAspectRatio="xMidYMid meet">
<metadata>
Created by potrace 1.11, written by Peter Selinger 2001-2013
</metadata>
<g transform="translate(0.000000,586.000000) scale(0.100000,-0.100000)"
fill="#000000" stroke="none">
<path d="M2835 5566 c-11 -8 -153 -96 -315 -196 -162 -100 -369 -228 -460
-285 -91 -56 -262 -162 -380 -235 -263 -162 -414 -256 -460 -285 -19 -13 -172
-107 -340 -211 -168 -103 -384 -236 -480 -296 -201 -124 -178 -110 -298 -183
-50 -32 -92 -60 -92 -64 1 -5 142 -93 392 -246 18 -11 579 -358 1247 -771
l1213 -752 282 176 c154 96 308 191 341 211 57 35 313 194 553 343 59 36 150
92 202 124 52 32 106 66 120 75 23 15 1047 649 1112 688 127 76 238 147 238
152 0 6 -305 199 -383 244 -9 5 -166 102 -347 215 -181 113 -338 210 -347 215
-10 6 -29 18 -43 27 -24 15 -910 564 -1395 863 -126 78 -252 156 -279 174 -56
35 -54 35 -81 17z"/>
<path d="M5 3119 c1 -127 2 -131 25 -150 14 -10 31 -19 38 -19 6 0 12 -4 12
-10 0 -5 6 -10 14 -10 7 0 24 -9 37 -19 14 -10 39 -27 56 -37 38 -22 123 -75
453 -279 410 -254 741 -459 776 -480 18 -11 146 -90 284 -175 138 -85 288
-178 333 -205 437 -269 777 -480 798 -495 l27 -19 158 98 c159 97 1027 633
1649 1018 182 112 339 210 350 216 23 14 94 58 178 111 31 20 60 36 63 36 2 0
10 5 17 10 16 13 318 200 323 200 3 0 10 5 17 10 7 6 33 24 58 39 l47 29 -1
127 c0 107 -2 125 -15 120 -18 -7 -131 -75 -437 -265 -374 -232 -438 -272
-480 -297 -22 -13 -83 -51 -135 -83 -52 -33 -130 -81 -173 -107 -43 -27 -89
-55 -102 -63 -14 -8 -62 -38 -107 -66 -46 -28 -177 -109 -293 -181 -708 -438
-1063 -658 -1086 -671 -29 -17 -31 -17 -279 138 -47 29 -97 60 -112 69 -24 14
-189 116 -373 231 -117 73 -315 195 -332 205 -25 14 -330 203 -373 230 -19 13
-93 59 -165 103 -71 44 -215 132 -320 197 -104 65 -245 152 -313 194 -68 42
-135 83 -150 92 -15 9 -110 68 -212 131 -102 63 -201 124 -220 136 l-36 21 1
-130z"/>
<path d="M5 2406 c0 -190 2 -346 5 -348 3 -2 260 -164 572 -359 312 -195 587
-366 610 -381 24 -15 53 -33 65 -40 27 -16 124 -76 213 -133 76 -48 583 -365
608 -380 19 -11 330 -206 395 -247 23 -15 52 -33 64 -40 13 -7 58 -35 100 -62
43 -27 112 -71 154 -96 l76 -48 29 22 c16 12 72 49 124 81 52 32 118 73 145
90 28 17 94 59 148 93 54 34 102 62 107 62 4 0 10 4 12 8 3 7 146 98 504 319
64 39 144 90 178 111 59 38 615 386 1277 799 l326 203 0 345 c0 190 -3 344 -7
343 -3 -2 -224 -140 -491 -306 -266 -167 -493 -309 -504 -315 -11 -7 -45 -29
-77 -50 -31 -20 -60 -37 -63 -37 -3 0 -11 -5 -18 -10 -13 -11 -165 -107 -332
-210 -55 -33 -143 -88 -195 -120 -52 -33 -102 -64 -110 -69 -8 -6 -135 -85
-282 -178 -147 -92 -297 -186 -333 -208 -35 -22 -106 -66 -157 -98 -288 -180
-286 -179 -310 -164 -13 8 -72 45 -133 82 -60 38 -132 82 -160 100 -50 32
-875 548 -1015 635 -41 26 -400 250 -797 498 -398 249 -724 452 -726 452 -1 0
-2 -155 -2 -344z"/>
<path d="M5314 1027 c-42 -14 -81 -54 -88 -90 -7 -35 -9 -205 -6 -385 l2 -112
38 -43 38 -42 223 -3 c166 -2 230 0 249 10 33 16 93 82 80 86 -7 3 -6 10 2 20
11 13 11 14 0 8 -16 -10 -13 24 3 37 6 6 6 10 -3 14 -6 2 -9 9 -6 14 11 18 6
383 -5 413 -14 36 -47 66 -73 66 -10 0 -18 3 -18 8 0 10 -402 10 -436 -1z
m403 -87 c13 -8 27 -28 33 -44 14 -39 13 -378 -1 -409 -22 -48 -53 -56 -218
-56 l-153 1 -31 28 -32 28 -2 192 c-1 106 2 203 7 216 20 51 54 60 222 59 113
-1 159 -5 175 -15z"/>
<path d="M5369 899 c-21 -21 -25 -38 -9 -40 6 -1 15 -3 20 -4 6 -1 21 -3 35
-4 41 -2 56 -46 55 -164 -2 -132 -4 -124 24 -129 l24 -5 -2 181 -1 181 -63 2
c-51 2 -67 -2 -83 -18z"/>
<path d="M5559 907 c-1 -7 -2 -87 -3 -179 -1 -137 1 -169 13 -173 28 -11 35
16 37 136 1 108 3 122 22 141 13 13 34 22 56 22 39 1 49 23 20 46 -21 18 -144
24 -145 7z"/>
<path d="M5350 664 c0 -189 3 -194 106 -194 62 0 65 1 62 22 -2 17 -10 23 -32
25 -48 3 -55 25 -56 160 0 130 -2 135 -52 139 l-28 2 0 -154z"/>
<path d="M5658 809 c-14 -8 -17 -25 -16 -102 1 -171 -3 -185 -56 -191 -21 -2
-30 -9 -33 -25 -3 -20 1 -21 66 -21 101 0 103 4 104 185 0 80 -3 148 -7 152
-11 11 -40 12 -58 2z"/>
</g>
</svg>
